<svg width="1368" height="599" viewBox="0 0 1368 599" fill="none" xmlns="http://www.w3.org/2000/svg">
<g id="prpl-bkg" clip-path="url(#clip0_31_372)">
<g id="bkg">
<path id="Vector" fill-rule="evenodd" clip-rule="evenodd" d="M-66 204.77L-23.6358 169.052C17.2675 133.335 100.535 61.8998 183.802 26.1823C268.531 -9.53528 351.798 -9.53528 435.066 31.2848C518.333 72.1048 601.601 153.745 684.868 169.052C768.136 184.36 852.864 133.335 936.132 138.437C1019.4 143.54 1102.67 204.77 1185.93 199.667C1269.2 194.565 1352.47 123.13 1437.2 92.5148C1520.46 61.8998 1603.73 72.1048 1644.64 77.2073L1687 82.3098V266H1644.64C1603.73 266 1520.46 266 1437.2 266C1352.47 266 1269.2 266 1185.93 266C1102.67 266 1019.4 266 936.132 266C852.864 266 768.136 266 684.868 266C601.601 266 518.333 266 435.066 266C351.798 266 268.531 266 183.802 266C100.535 266 17.2675 266 -23.6358 266H-66V204.77Z" fill="#2B173D"/>
<rect id="Rectangle 832" y="252" width="1368" height="347" fill="#2B173D"/>
</g>
</g>
<defs>
<clipPath id="clip0_31_372">
<rect width="1368" height="599" fill="white"/>
</clipPath>
</defs>
</svg>
