<svg width="1368" height="1127" viewBox="0 0 1368 1127" fill="none" xmlns="http://www.w3.org/2000/svg">
<g id="desktop-home-rd bkg" clip-path="url(#clip0_31_312)">
<g id="bkg">
<g id="Group 10785">
<rect id="Rectangle 831" y="235" width="1368" height="1042" fill="#C33458"/>
<path id="Vector" fill-rule="evenodd" clip-rule="evenodd" d="M-92 212.926L-58.9083 194.747C-25.8167 176.569 41.8708 140.211 108.054 134.151C175.742 128.091 241.925 152.33 309.612 170.509C375.796 188.688 443.483 200.807 509.667 188.688C575.85 176.569 643.538 140.211 709.721 103.853C777.408 67.495 843.592 31.1371 911.279 12.9582C977.463 -5.22075 1045.15 -5.22075 1111.33 19.0178C1177.52 43.2564 1245.2 91.7336 1311.39 109.912C1379.08 128.091 1445.26 115.972 1512.95 128.091C1579.13 140.211 1646.82 176.569 1679.91 194.747L1713 212.926V322H1679.91C1646.82 322 1579.13 322 1512.95 322C1445.26 322 1379.08 322 1311.39 322C1245.2 322 1177.52 322 1111.33 322C1045.15 322 977.463 322 911.279 322C843.592 322 777.408 322 709.721 322C643.538 322 575.85 322 509.667 322C443.483 322 375.796 322 309.612 322C241.925 322 175.742 322 108.054 322C41.8708 322 -25.8167 322 -58.9083 322H-92V212.926Z" fill="#C33458"/>
</g>
</g>
</g>
<defs>
<clipPath id="clip0_31_312">
<rect width="1368" height="1127" fill="white"/>
</clipPath>
</defs>
</svg>
