<svg width="368" height="381" viewBox="0 0 368 381" fill="none" xmlns="http://www.w3.org/2000/svg">
<g clip-path="url(#clip0_31_404)">
<path fill-rule="evenodd" clip-rule="evenodd" d="M-539 64.5004L-512.054 33.7138C-486.037 2.92728 -433.075 -58.6458 -380.113 -89.4323C-326.221 -120.219 -273.258 -120.219 -220.296 -85.0343C-167.333 -49.8497 -114.371 20.5196 -61.4083 33.7138C-8.4458 46.9081 45.4458 2.92727 98.4083 7.32535C151.371 11.7234 204.333 64.5004 257.296 60.1023C310.258 55.7042 363.221 -5.86888 417.112 -32.2573C470.075 -58.6458 523.037 -49.8496 549.054 -45.4516L576 -41.0535V117.277H549.054C523.037 117.277 470.075 117.277 417.112 117.277C363.221 117.277 310.258 117.277 257.296 117.277C204.333 117.277 151.371 117.277 98.4083 117.277C45.4458 117.277 -8.4458 117.277 -61.4083 117.277C-114.371 117.277 -167.333 117.277 -220.296 117.277C-273.258 117.277 -326.221 117.277 -380.113 117.277C-433.075 117.277 -486.037 117.277 -512.054 117.277H-539V64.5004Z" fill="#2B173D"/>
<rect x="-19" y="76.3733" width="820" height="304.627" fill="#2B173D"/>
</g>
<defs>
<clipPath id="clip0_31_404">
<rect width="368" height="381" fill="white"/>
</clipPath>
</defs>
</svg>
