<svg width="16" height="19" viewBox="0 0 16 19" fill="none" xmlns="http://www.w3.org/2000/svg">
<path d="M9.59857 14.3445C10.159 14.964 10.1426 16.4659 11.4572 15.5531C11.4673 15.5461 11.7487 15.8528 11.7239 15.8891C11.4064 16.3543 10.8303 16.6878 11.0259 17.3958C10.7809 17.3885 10.4037 17.4797 10.3135 17.3572C9.88519 16.7752 9.54819 16.1261 9.14839 15.5212C9.03593 15.351 8.82072 15.2494 8.65266 15.1163C8.61107 15.2783 8.55203 15.438 8.53074 15.6026C8.40598 16.5684 8.30237 17.5371 8.1599 18.5001C8.13312 18.6814 7.99322 18.8824 7.84505 18.991C7.78337 19.0363 7.5078 18.9021 7.42555 18.7826C7.11447 18.3305 6.80988 18.0653 7.12108 17.2568C7.71989 15.7016 8.61028 14.0234 7.47983 12.237C7.06264 11.5777 6.88009 11.1915 6.12016 11.8894C4.54403 13.3372 2.88406 14.6924 1.2633 16.0914C1.03844 16.2855 0.867397 16.5549 0.621115 16.7068C0.471429 16.7992 0.225082 16.7329 0.0221071 16.7379C0.0241567 16.576 -0.0386534 16.3662 0.0389004 16.2603C0.478901 15.6594 0.907397 15.0391 1.42323 14.5074C2.86515 13.021 4.27851 11.4942 6.25583 10.6699C6.48525 10.5742 6.56631 10.1188 6.71606 9.83016C6.39428 9.81316 5.9917 9.66249 5.76413 9.80153C4.54621 10.5456 3.21517 10.3846 1.90409 10.3821C1.73252 10.3818 1.56121 10.1926 1.38984 10.0909C1.52558 9.95327 1.64016 9.73317 1.80055 9.69152C2.82442 9.42592 3.87123 9.24442 4.88558 8.94886C6.16499 8.5761 6.12763 8.5583 5.36188 7.37883C4.57193 6.16204 3.83256 4.91149 3.0957 3.66102C2.97444 3.45527 2.97986 3.17399 2.92677 2.92766C3.17173 3.00804 3.4951 3.01595 3.64697 3.1823C4.10766 3.68706 4.55361 4.22099 4.9109 4.80228C5.57973 5.89039 6.1677 7.02853 6.82733 8.12276C6.92856 8.2907 7.35963 8.46881 7.41887 8.41181C7.60479 8.23284 7.84796 7.88373 7.78297 7.70675C7.06284 5.74696 7.6108 3.72858 7.48723 1.74534C7.45907 1.29346 7.75897 0.788167 8.00704 0.366448C8.12181 0.171266 8.47474 0.11772 8.7197 0C8.70383 0.246335 8.68677 0.492671 8.67216 0.739073C8.62356 1.55581 8.5472 2.37214 8.53424 3.18947C8.5115 4.62357 8.51593 6.05847 8.53913 7.4925C8.54323 7.74369 8.69497 7.99248 8.77847 8.24234C8.97437 8.14076 9.219 8.08396 9.35831 7.93043C10.2978 6.895 11.2205 5.84376 12.1315 4.78281C12.2299 4.66828 12.2193 4.45915 12.2593 4.29393C12.0999 4.3399 11.904 4.34322 11.79 4.44208C11.6235 4.5865 11.5408 4.82759 11.3761 4.97534C11.2119 5.12275 10.9907 5.20586 10.7945 5.3172C10.7529 5.03579 10.5783 4.66157 10.6958 4.49117C10.9958 4.05623 11.3748 3.62946 11.8168 3.3521C12.4174 2.97536 13.0987 2.72244 13.7616 2.45711C13.9401 2.38563 14.177 2.46123 14.3871 2.46933C14.3578 2.63841 14.3783 2.84129 14.2913 2.97124C13.5065 4.142 12.6942 5.29415 11.9149 6.46863C11.8133 6.62176 11.8531 6.86982 11.8274 7.07391C12.0303 7.05052 12.2437 7.06002 12.4345 6.99837C13.5709 6.63119 14.6872 6.67371 15.765 7.18239C15.8985 7.2455 15.9243 7.53974 16 7.72688C15.8432 7.77903 15.6577 7.91436 15.5338 7.87111C13.1443 7.03604 11.1813 8.08921 9.30383 9.34726C8.923 9.60236 8.49596 10.2824 8.58039 10.6539C8.84915 11.8363 8.68644 13.1705 9.59857 14.3445Z" fill="#FFEFF1"/>
</svg>
