<svg width="114" height="15" viewBox="0 0 114 15" fill="none" xmlns="http://www.w3.org/2000/svg">
<path d="M2.47338 6.07668C3.36594 6.07668 4.30099 6.01338 5.19354 5.95008C5.57607 5.95008 5.91609 5.88678 6.29861 5.88678C7.91371 5.76018 9.5288 5.63358 11.1439 5.50699C13.099 5.38039 15.0116 5.19049 16.9667 5.0639C19.7294 4.8107 22.4921 4.62081 25.2547 4.36761C25.8923 4.30431 26.5298 4.30431 27.1673 4.24101C28.7824 4.11442 30.3975 3.98782 32.0126 3.92452C33.6277 3.79792 35.2428 3.67132 36.8579 3.60803C37.4955 3.54473 38.133 3.48143 38.7705 3.48143C41.3207 3.35483 43.9133 3.22823 46.4635 3.10164C48.0361 3.03834 49.6087 2.97504 51.2238 2.84844C51.8613 2.84844 52.4563 2.78514 53.0939 2.78514C55.559 2.72184 58.0667 2.65855 60.5318 2.59525C62.997 2.53195 65.4196 2.46865 67.8848 2.40535C68.5223 2.40535 69.1598 2.40535 69.8399 2.40535C71.455 2.40535 73.0276 2.40535 74.6427 2.40535C77.1503 2.40535 79.6155 2.40535 82.1231 2.34205C82.9306 2.34205 83.7382 2.34205 84.5457 2.34205C86.2458 2.34205 87.9459 2.34205 89.646 2.34205C89.7736 2.34205 89.9436 2.34205 90.0711 2.34205C86.2458 2.40535 82.3781 2.46865 78.5529 2.59525C76.9378 2.65855 75.3652 2.65855 73.7501 2.72184C73.0701 2.72184 72.3475 2.72184 71.6675 2.78514C69.3298 2.84844 67.0347 2.97504 64.6971 3.03834C62.0194 3.16494 59.3418 3.22823 56.6641 3.35483C56.1966 3.35483 55.7715 3.41813 55.304 3.41813C53.8589 3.54473 52.4563 3.60803 51.0113 3.73462C48.1211 3.92452 45.2309 4.11442 42.3407 4.30431C41.9157 4.30431 41.4907 4.36761 41.0657 4.43091C39.6631 4.55751 38.218 4.7474 36.8154 4.874C34.2653 5.1272 31.7576 5.38039 29.2075 5.63358C28.5274 5.69688 27.8049 5.82348 27.1248 5.88678C25.5098 6.07668 23.8947 6.26657 22.2796 6.51977C20.2394 6.77296 18.1568 7.02616 16.1167 7.27935C13.269 7.65914 10.3789 8.03894 7.53118 8.41873C6.85114 8.48203 6.1711 8.60862 5.44856 8.67192C4.21599 8.86182 2.98341 9.05171 1.75084 9.24161C1.62333 9.24161 1.49583 9.36821 1.49583 9.6214C1.49583 9.8113 1.62333 10.0012 1.75084 10.0012C2.21837 10.0012 2.64339 10.0645 3.11092 10.0645C3.02592 10.381 2.98341 10.5709 2.98341 10.7608C2.98341 11.4571 3.36594 12.0901 3.87597 12.0901C7.40368 11.7736 10.8889 11.3938 14.4166 11.1406C17.4768 10.9507 20.537 10.6975 23.5971 10.5076C26.9548 10.2544 30.355 10.0012 33.7127 9.8113C34.7753 9.748 35.8379 9.6847 36.9004 9.5581C37.1979 9.5581 37.4955 9.49481 37.8355 9.49481C43.2758 9.30491 48.7161 9.05171 54.1564 8.86182C57.0466 8.73522 59.9793 8.60862 62.8695 8.54533C63.932 8.48203 64.9521 8.48203 66.0146 8.41873C71.5825 8.29213 77.1503 8.16553 82.7181 8.03894C85.0983 7.97564 87.4784 7.91234 89.8586 7.84904C91.8987 7.78574 93.9388 7.78574 95.9789 7.65914C97.679 7.59584 99.3366 7.46925 101.037 7.40595C101.887 7.34265 102.737 7.34265 103.544 7.27935C105.457 7.08946 107.37 6.89956 109.282 6.70966C109.155 6.96286 109.155 7.34265 109.197 7.59585C109.24 7.91234 109.367 8.16553 109.58 8.29213C109.75 8.41873 110.005 8.54533 110.175 8.41873C110.6 8.16553 111.025 7.91234 111.407 7.65914C111.407 7.65914 111.407 7.65914 111.365 7.65914C111.407 7.65914 111.407 7.59585 111.45 7.59585C111.492 7.59585 111.535 7.53255 111.535 7.53255H111.492C111.705 7.40595 111.917 7.27935 112.172 7.08946C112.385 6.96286 112.64 6.77296 112.852 6.64636C113.107 6.45647 113.32 6.26657 113.575 6.07668C113.83 5.88678 114 5.38039 114 4.9373C114 4.6841 113.957 4.49421 113.872 4.24101C113.787 3.98782 113.575 3.67132 113.362 3.60803C113.15 3.54473 112.937 3.48143 112.725 3.48143C112.682 3.48143 112.64 3.48143 112.597 3.48143C112.47 3.48143 112.3 3.48143 112.172 3.54473C111.832 3.60803 111.535 3.67132 111.195 3.67132C110.94 3.67132 110.685 3.73462 110.387 3.73462C109.665 3.79792 108.985 3.86122 108.262 3.98782C108.092 3.98782 107.88 4.05112 107.71 4.05112C107.795 3.92452 107.837 3.79792 107.837 3.67132C107.88 3.54473 107.88 3.41813 107.88 3.29153C107.88 3.22823 107.88 3.10164 107.922 3.03834C107.922 2.91174 107.922 2.78514 107.88 2.72184C107.88 2.72184 107.922 2.72184 107.922 2.65855C108.05 2.53195 108.177 2.40535 108.262 2.15216C108.347 1.96226 108.39 1.70907 108.39 1.45587C108.39 1.20268 108.347 1.01278 108.262 0.759585C108.22 0.696286 108.177 0.569688 108.135 0.50639C108.007 0.316494 107.88 0.253195 107.752 0.189896C107.497 0.0632987 107.2 0 106.902 0C106.647 0 106.435 0 106.18 0C105.84 0 105.499 0 105.159 0C104.692 0 104.182 0 103.714 0C102.439 0 101.164 0 99.8892 0C98.6991 0 97.4665 0 96.2764 0C95.1714 0 94.1088 0 93.0038 0C88.626 0 84.2907 0.0632987 79.913 0.126597C76.6403 0.189896 73.3676 0.253195 70.0949 0.253195C68.6498 0.253195 67.1622 0.316494 65.7171 0.379792C62.4444 0.50639 59.1717 0.569688 55.899 0.696286C54.964 0.696286 54.0289 0.759585 53.0939 0.759585C52.5414 0.759585 52.0313 0.822883 51.4788 0.822883C48.2486 1.01278 45.0184 1.20268 41.7882 1.39257C40.8107 1.45587 39.8331 1.51917 38.813 1.58247C38.2605 1.58247 37.708 1.64577 37.1554 1.70907C33.9252 1.96226 30.7376 2.21545 27.5074 2.46865C25.8498 2.59525 24.1922 2.72184 22.5346 2.91174C19.6869 3.16494 16.8392 3.41813 14.0341 3.73462C11.5689 3.98782 9.10378 4.17771 6.63863 4.36761C6.25611 4.43091 5.87359 4.43091 5.44856 4.49421C4.81102 4.55751 4.17348 4.55751 3.53595 4.62081C2.98341 4.874 2.38838 4.874 1.83585 4.874C1.79334 4.62081 1.62333 4.43091 1.49583 4.49421C1.1133 4.49421 0.773283 4.55751 0.39076 4.62081C0.22075 4.6841 0.0507401 4.8107 0.00823762 5.0639C-0.0342649 5.38039 0.0932427 5.69688 0.263253 5.76018C0.433263 5.82348 0.603273 5.88678 0.773283 5.95008C0.943293 6.01338 1.0708 6.01338 1.24081 6.01338C1.66584 6.07668 2.04836 6.07668 2.47338 6.07668ZM101.929 4.05112C102.439 4.05112 102.992 4.05112 103.502 4.05112C103.544 4.24101 103.629 4.36761 103.714 4.49421C103.502 4.49421 103.289 4.55751 103.119 4.55751C102.737 4.55751 102.354 4.62081 101.972 4.62081C100.272 4.6841 98.6141 4.8107 96.914 4.874C96.1489 4.9373 95.3839 5.0006 94.6189 5.0006C93.4288 5.0006 92.1962 5.0639 91.0061 5.0639C88.2435 5.1272 85.5233 5.19049 82.7606 5.25379C77.4053 5.38039 72.0925 5.50699 66.7372 5.63358C62.912 5.69688 59.0867 5.88678 55.2615 6.07668C49.5237 6.32987 43.7433 6.51977 38.0055 6.77296C36.8579 6.83626 35.7104 6.89956 34.5628 7.02616C31.2901 7.27935 28.0174 7.46925 24.7447 7.72244C21.557 7.97564 18.3268 8.16553 15.1391 8.41873C14.8416 8.41873 14.5441 8.48203 14.2466 8.48203C15.0966 8.35543 15.9892 8.29213 16.8392 8.16553C19.8569 7.84904 22.8746 7.46925 25.8923 7.15275C26.9548 7.02616 28.0174 6.89956 29.0375 6.77296C29.59 6.70966 30.1425 6.64636 30.6526 6.64636C33.8402 6.39317 36.9854 6.07668 40.1306 5.82348C40.7257 5.76018 41.3632 5.69688 41.9582 5.63358C42.8508 5.57029 43.7433 5.50699 44.5934 5.50699C47.8236 5.31709 51.0538 5.1272 54.284 4.9373C55.0065 4.874 55.729 4.874 56.4091 4.8107C56.5791 4.8107 56.7916 4.8107 56.9616 4.8107C57.4716 4.8107 57.9817 4.8107 58.4492 4.7474C61.6794 4.62081 64.9521 4.55751 68.1823 4.43091C69.6699 4.36761 71.1574 4.30431 72.645 4.30431C77.4478 4.24101 82.2931 4.17771 87.0959 4.11442C92.1112 4.11442 97.0415 4.05112 101.929 4.05112Z" fill="#A83BC3"/>
<path d="M8.84081 14.9348C8.9693 14.9348 9.07346 14.7756 9.07346 14.5792C9.07346 14.3828 8.9693 14.2236 8.84081 14.2236C8.71232 14.2236 8.60815 14.3828 8.60815 14.5792C8.60815 14.7756 8.71232 14.9348 8.84081 14.9348Z" fill="#A83BC3"/>
</svg>
