<svg width="368" height="852" viewBox="0 0 368 852" fill="none" xmlns="http://www.w3.org/2000/svg">
<rect y="180" width="368" height="672" fill="#C33458"/>
<path fill-rule="evenodd" clip-rule="evenodd" d="M-179 120.35L-163.582 110.075C-148.163 99.7996 -116.626 79.2495 -85.7892 75.8245C-54.2517 72.3995 -23.415 86.0996 8.1225 96.3746C38.9592 106.65 70.4967 113.5 101.333 106.65C132.17 99.7996 163.708 79.2495 194.544 58.6994C226.082 38.1493 256.918 17.5992 288.456 7.32419C319.293 -2.95086 350.83 -2.95086 381.667 10.7492C412.503 24.4493 444.041 51.8494 474.878 62.1244C506.415 72.3995 537.252 65.5495 568.789 72.3995C599.626 79.2495 631.163 99.7996 646.582 110.075L662 120.35V182H646.582C631.163 182 599.626 182 568.789 182C537.252 182 506.415 182 474.878 182C444.041 182 412.503 182 381.667 182C350.83 182 319.293 182 288.456 182C256.918 182 226.082 182 194.544 182C163.708 182 132.17 182 101.333 182C70.4967 182 38.9592 182 8.1225 182C-23.415 182 -54.2517 182 -85.7892 182C-116.626 182 -148.163 182 -163.582 182H-179V120.35Z" fill="#C33458"/>
</svg>
